<svg width="28" height="14" viewBox="0 0 28 14" xmlns="http://www.w3.org/2000/svg" fill="#000">
<path d="M8.04221 13.58C8.22846 13.4113 8.333 13.1831 8.333 12.9453C8.333 12.7075 8.22846 12.4793 8.04221 12.3106L3.44221 8.17849H26.9922C27.2574 8.17849 27.5118 8.08364 27.6993 7.91481C27.8869 7.74598 27.9922 7.517 27.9922 7.27824C27.9922 7.03948 27.8869 6.8105 27.6993 6.64167C27.5118 6.47284 27.2574 6.37799 26.9922 6.37799H3.47221L8.04221 2.26387C8.23184 2.09435 8.3389 1.86396 8.33984 1.62337C8.34078 1.38279 8.23551 1.15173 8.04721 0.981017C7.85891 0.810304 7.60299 0.713923 7.33575 0.713079C7.06851 0.712235 6.81184 0.806996 6.62221 0.976516L0.262211 6.71108C0.0942805 6.86293 0 7.06847 0 7.28274C0 7.49701 0.0942805 7.70255 0.262211 7.8544L6.62221 13.58C6.71517 13.6643 6.82578 13.7313 6.94763 13.777C7.06949 13.8227 7.2002 13.8463 7.33221 13.8463C7.46422 13.8463 7.59493 13.8227 7.71679 13.777C7.83865 13.7313 7.94925 13.6643 8.04221 13.58Z" />
</svg>
