<svg width="14" height="14" viewBox="0 0 14 14" fill="none" xmlns="http://www.w3.org/2000/svg">
<path d="M11.6591 0.5H11.0455V1.775C11.0455 1.94408 10.9808 2.10623 10.8657 2.22578C10.7506 2.34533 10.5946 2.4125 10.4318 2.4125C10.2691 2.4125 10.113 2.34533 9.99791 2.22578C9.88283 2.10623 9.81818 1.94408 9.81818 1.775V0.5H3.68182V1.775C3.68182 1.94408 3.61717 2.10623 3.50209 2.22578C3.38701 2.34533 3.23093 2.4125 3.06818 2.4125C2.90544 2.4125 2.74935 2.34533 2.63428 2.22578C2.5192 2.10623 2.45455 1.94408 2.45455 1.775V0.5H1.84091C1.35267 0.5 0.884427 0.701495 0.53919 1.06016C0.193952 1.41882 0 1.90527 0 2.4125V11.3375C0 11.8447 0.193952 12.3312 0.53919 12.6898C0.884427 13.0485 1.35267 13.25 1.84091 13.25H11.6591C12.1473 13.25 12.6156 13.0485 12.9608 12.6898C13.306 12.3312 13.5 11.8447 13.5 11.3375V2.4125C13.5 1.90527 13.306 1.41882 12.9608 1.06016C12.6156 0.701495 12.1473 0.5 11.6591 0.5ZM3.68182 10.7H2.45455C2.2918 10.7 2.13572 10.6328 2.02064 10.5133C1.90556 10.3937 1.84091 10.2316 1.84091 10.0625C1.84091 9.89342 1.90556 9.73127 2.02064 9.61172C2.13572 9.49216 2.2918 9.425 2.45455 9.425H3.68182C3.84456 9.425 4.00065 9.49216 4.11572 9.61172C4.2308 9.73127 4.29545 9.89342 4.29545 10.0625C4.29545 10.2316 4.2308 10.3937 4.11572 10.5133C4.00065 10.6328 3.84456 10.7 3.68182 10.7ZM3.68182 7.5125H2.45455C2.2918 7.5125 2.13572 7.44533 2.02064 7.32578C1.90556 7.20623 1.84091 7.04408 1.84091 6.875C1.84091 6.70592 1.90556 6.54377 2.02064 6.42422C2.13572 6.30467 2.2918 6.2375 2.45455 6.2375H3.68182C3.84456 6.2375 4.00065 6.30467 4.11572 6.42422C4.2308 6.54377 4.29545 6.70592 4.29545 6.875C4.29545 7.04408 4.2308 7.20623 4.11572 7.32578C4.00065 7.44533 3.84456 7.5125 3.68182 7.5125ZM7.36364 10.7H6.13636C5.97362 10.7 5.81754 10.6328 5.70246 10.5133C5.58738 10.3937 5.52273 10.2316 5.52273 10.0625C5.52273 9.89342 5.58738 9.73127 5.70246 9.61172C5.81754 9.49216 5.97362 9.425 6.13636 9.425H7.36364C7.52638 9.425 7.68246 9.49216 7.79754 9.61172C7.91262 9.73127 7.97727 9.89342 7.97727 10.0625C7.97727 10.2316 7.91262 10.3937 7.79754 10.5133C7.68246 10.6328 7.52638 10.7 7.36364 10.7ZM7.36364 7.5125H6.13636C5.97362 7.5125 5.81754 7.44533 5.70246 7.32578C5.58738 7.20623 5.52273 7.04408 5.52273 6.875C5.52273 6.70592 5.58738 6.54377 5.70246 6.42422C5.81754 6.30467 5.97362 6.2375 6.13636 6.2375H7.36364C7.52638 6.2375 7.68246 6.30467 7.79754 6.42422C7.91262 6.54377 7.97727 6.70592 7.97727 6.875C7.97727 7.04408 7.91262 7.20623 7.79754 7.32578C7.68246 7.44533 7.52638 7.5125 7.36364 7.5125ZM11.0455 10.7H9.81818C9.65544 10.7 9.49935 10.6328 9.38428 10.5133C9.2692 10.3937 9.20455 10.2316 9.20455 10.0625C9.20455 9.89342 9.2692 9.73127 9.38428 9.61172C9.49935 9.49216 9.65544 9.425 9.81818 9.425H11.0455C11.2082 9.425 11.3643 9.49216 11.4794 9.61172C11.5944 9.73127 11.6591 9.89342 11.6591 10.0625C11.6591 10.2316 11.5944 10.3937 11.4794 10.5133C11.3643 10.6328 11.2082 10.7 11.0455 10.7ZM11.0455 7.5125H9.81818C9.65544 7.5125 9.49935 7.44533 9.38428 7.32578C9.2692 7.20623 9.20455 7.04408 9.20455 6.875C9.20455 6.70592 9.2692 6.54377 9.38428 6.42422C9.49935 6.30467 9.65544 6.2375 9.81818 6.2375H11.0455C11.2082 6.2375 11.3643 6.30467 11.4794 6.42422C11.5944 6.54377 11.6591 6.70592 11.6591 6.875C11.6591 7.04408 11.5944 7.20623 11.4794 7.32578C11.3643 7.44533 11.2082 7.5125 11.0455 7.5125ZM11.0455 4.325H2.45455C2.2918 4.325 2.13572 4.25783 2.02064 4.13828C1.90556 4.01873 1.84091 3.85658 1.84091 3.6875C1.84091 3.51842 1.90556 3.35627 2.02064 3.23672C2.13572 3.11717 2.2918 3.05 2.45455 3.05H11.0455C11.2082 3.05 11.3643 3.11717 11.4794 3.23672C11.5944 3.35627 11.6591 3.51842 11.6591 3.6875C11.6591 3.85658 11.5944 4.01873 11.4794 4.13828C11.3643 4.25783 11.2082 4.325 11.0455 4.325Z" fill="#0577D0"/>
</svg>
