<svg width="50" height="73" viewBox="0 0 50 73" fill="none" xmlns="http://www.w3.org/2000/svg">
<path fill-rule="evenodd" clip-rule="evenodd" d="M24.5319 3.44337e-05C24.5146 1.14841e-05 24.4972 0 24.4799 0C21.2637 0 18.1422 0.394489 15.1636 1.13649C18.1608 0.39857 21.2997 0.00426677 24.5319 3.44337e-05ZM15.1636 71.8635C18.1608 72.6014 21.2997 72.9957 24.5319 73C24.5146 73 24.4972 73 24.4799 73C21.2637 73 18.1422 72.6055 15.1636 71.8635ZM37.7839 25.0025L33.3835 21.3069L19.9431 35.7138L24.3435 39.7604L37.7839 25.0025ZM0.00244141 39.3077L12.886 51.7019L17.0198 47.7308L4.13445 35.3366L0.00244141 39.3077ZM11.7211 39.3077L24.7543 51.8405L49.1574 25.0025L44.757 21.3069L24.4658 43.6228L15.8549 35.3383L11.7211 39.3077Z" fill="white"/>
</svg>
