<svg width="29" height="24" viewBox="0 0 29 24" fill="none" xmlns="http://www.w3.org/2000/svg">
<path d="M28.8147 1.168C28.4837 0.448 27.7827 0 26.9857 0H3.01367C2.21667 0 1.51567 0.448 1.18367 1.168C0.854671 1.882 0.968671 2.698 1.48067 3.296L1.48167 3.297L10.9997 14.371V23C10.9997 23.369 11.2027 23.708 11.5277 23.882C11.6757 23.961 11.8377 24 11.9997 24C12.1937 24 12.3867 23.943 12.5547 23.832L18.5547 19.832C18.8327 19.646 18.9997 19.334 18.9997 19V14.371L28.5187 3.297C29.0307 2.698 29.1447 1.882 28.8147 1.168Z" fill="#1579CE"/>
</svg>
