<svg width="31" height="28" viewBox="0 0 31 28" xmlns="http://www.w3.org/2000/svg" fill="#fff">
<path d="M29.8549 14.5468C29.5239 15.4288 28.7039 15.9987 27.7649 15.9987H27.0009V26.9988C27.0009 27.5508 26.5529 27.9988 26.0009 27.9988H20.0009V20.9988C20.0009 18.2418 17.7579 15.9987 15.0009 15.9987C12.2439 15.9987 10.0009 18.2418 10.0009 20.9988V27.9988H4.00088C3.44888 27.9988 3.00088 27.5508 3.00088 26.9988V15.9987H2.23588C1.29688 15.9987 0.476881 15.4297 0.145881 14.5477C-0.185119 13.6657 0.0578809 12.6958 0.765881 12.0778L12.4449 1.01775C13.8789 -0.33925 16.1239 -0.33925 17.5569 1.01775L29.2639 12.1037C29.9419 12.6947 30.1859 13.6648 29.8549 14.5468Z" />
</svg>
