<svg width="20" height="23" viewBox="0 0 20 23" fill="none" xmlns="http://www.w3.org/2000/svg">
<path d="M8.60031 13.7344C8.59212 13.7589 8.54097 13.7569 8.44685 13.7282C8.35272 13.6996 8.22382 13.6525 8.06013 13.5871L7.81459 13.4766C7.45447 13.3129 7.09845 13.1124 6.74651 12.875C6.68922 12.8341 6.52144 12.7052 6.24316 12.4883C5.96489 12.2714 5.80938 12.1548 5.77665 12.1384C5.22828 12.9814 4.67992 13.7221 4.13156 14.3605C3.46861 15.138 3.03892 15.5882 2.84249 15.7109C2.80976 15.7273 2.72996 15.7437 2.6031 15.76C2.47624 15.7764 2.40053 15.7764 2.37598 15.76C2.42508 15.7273 2.76065 15.3508 3.38267 14.6306C3.55455 14.4342 3.90444 13.9635 4.43234 13.2188C4.96024 12.474 5.28148 11.9911 5.39607 11.7701C5.5352 11.5246 5.74391 11.1215 6.02218 10.5608C6.30046 10.0002 6.44778 9.68304 6.46415 9.60938C6.39867 9.60119 5.94852 9.73623 5.1137 10.0145C5.04822 10.0309 4.93569 10.0616 4.77609 10.1066C4.61649 10.1516 4.47531 10.1905 4.35254 10.2232C4.22977 10.256 4.1602 10.2764 4.14383 10.2846C4.12746 10.301 4.11928 10.3439 4.11928 10.4135C4.11928 10.4831 4.11519 10.5219 4.107 10.5301C4.06608 10.612 3.93922 10.6734 3.72642 10.7143C3.53818 10.7716 3.34584 10.7716 3.14941 10.7143C3.00209 10.6815 2.88751 10.5956 2.80566 10.4565C2.77293 10.4074 2.75246 10.3132 2.74428 10.1741C2.79339 10.1577 2.89365 10.1373 3.04506 10.1127C3.19647 10.0882 3.3172 10.0636 3.40723 10.0391C3.88193 9.90811 4.31162 9.77716 4.69629 9.6462C5.51474 9.35975 5.93215 9.21652 5.94852 9.21652C6.03037 9.20015 6.20633 9.12035 6.47642 8.97712C6.74651 8.83389 6.92657 8.74591 7.0166 8.71317C7.09026 8.68862 7.17825 8.65588 7.28055 8.61495C7.38286 8.57403 7.4422 8.55153 7.45857 8.54743C7.47493 8.54334 7.49949 8.54539 7.53223 8.55357C7.54859 8.65179 7.5445 8.78683 7.51995 8.9587C7.51995 8.97507 7.4688 9.08557 7.36649 9.29018C7.26418 9.49479 7.15574 9.71373 7.04115 9.94699C6.92657 10.1802 6.857 10.3173 6.83245 10.3583C6.62784 10.7675 6.31273 11.3036 5.88714 11.9665L6.67285 12.3103C6.77107 12.3594 7.07594 12.4903 7.58747 12.7031C8.099 12.9159 8.37523 13.0305 8.41615 13.0469C8.44889 13.0551 8.49186 13.1594 8.54506 13.3599C8.59826 13.5605 8.61668 13.6853 8.60031 13.7344ZM6.08357 7.76786C6.10812 7.89062 6.09175 8.00521 6.03446 8.11161C5.93624 8.29985 5.73163 8.45536 5.42062 8.57812C5.17508 8.67634 4.92955 8.72545 4.68401 8.72545C4.47121 8.70089 4.27069 8.59449 4.08245 8.40625C3.96787 8.28348 3.89421 8.1157 3.86147 7.9029L3.87374 7.86607C3.8983 7.89062 3.9781 7.91109 4.11314 7.92746C4.24819 7.94382 4.35663 7.94382 4.43848 7.92746C4.52032 7.91109 4.75767 7.84561 5.15053 7.73103C5.44517 7.63281 5.67025 7.57552 5.82575 7.55915C5.96489 7.55915 6.05083 7.62872 6.08357 7.76786ZM14.6528 9.35156L15.4262 12.1384L13.7197 11.6228L14.6528 9.35156ZM1.05008 19.173L9.57017 16.3248V3.65513L1.05008 6.51562V19.173ZM16.2856 15.2812L17.5378 15.6618L15.3157 7.59598L14.088 7.2154L11.4362 13.7958L12.6885 14.1763L13.2409 12.8259L15.8313 13.6239L16.2856 15.2812ZM10.1104 3.47098L17.1449 5.72991V1.06473L10.1104 3.47098ZM13.9284 19.7132L15.8682 19.8728L15.2052 21.8371L14.7141 21.0268C13.6502 21.7061 12.5207 22.1481 11.3258 22.3527C10.8511 22.4509 10.4787 22.5 10.2086 22.5H9.17731C8.53074 22.5 7.71433 22.3404 6.7281 22.0212C5.74186 21.702 4.99093 21.3542 4.47531 20.9777C4.40983 20.9204 4.37709 20.8549 4.37709 20.7812C4.37709 20.7158 4.39755 20.6605 4.43848 20.6155C4.4794 20.5705 4.5326 20.548 4.59807 20.548C4.63081 20.548 4.70447 20.5787 4.81906 20.6401C4.93364 20.7015 5.05845 20.769 5.1935 20.8426C5.32854 20.9163 5.41243 20.9613 5.44517 20.9777C6.04264 21.2805 6.69536 21.5322 7.40332 21.7327C8.11128 21.9332 8.75581 22.0335 9.33691 22.0335C10.1144 22.0335 10.7979 21.9741 11.3871 21.8555C11.9764 21.7368 12.6189 21.5301 13.3146 21.2355C13.4374 21.1782 13.5622 21.1148 13.689 21.0452C13.8159 20.9756 13.955 20.8979 14.1064 20.8119C14.2579 20.726 14.3745 20.6585 14.4563 20.6094L13.9284 19.7132ZM19.4284 6.46652V19.7132L9.9262 16.6931C9.81162 16.7422 8.27702 17.264 5.3224 18.2584C2.36779 19.2528 0.86184 19.75 0.804548 19.75C0.698149 19.75 0.624488 19.6968 0.583566 19.5904C0.583566 19.5822 0.579474 19.5699 0.571289 19.5536V6.3192C0.595843 6.24554 0.612212 6.20461 0.620396 6.19643C0.661319 6.14732 0.743164 6.10231 0.865932 6.06138C1.73349 5.77493 2.34324 5.57031 2.69517 5.44754V0.733259L9.54562 3.16406C9.56199 3.16406 10.2188 2.93899 11.516 2.48884C12.8133 2.03869 14.1064 1.59468 15.3955 1.15681C16.6846 0.718936 17.3455 0.5 17.3782 0.5C17.5419 0.5 17.6237 0.585938 17.6237 0.757812V5.88951L19.4284 6.46652Z" fill="white"/>
</svg>
