<svg width="26" height="19" viewBox="0 0 26 19" fill="none" xmlns="http://www.w3.org/2000/svg">
<path d="M1.83333 0H11C11.4862 0 11.9525 0.193154 12.2964 0.536971C12.6402 0.880788 12.8333 1.3471 12.8333 1.83333C12.8333 2.31956 12.6402 2.78588 12.2964 3.1297C11.9525 3.47351 11.4862 3.66667 11 3.66667H1.83333C1.3471 3.66667 0.880788 3.47351 0.536971 3.1297C0.193154 2.78588 0 2.31956 0 1.83333C0 1.3471 0.193154 0.880788 0.536971 0.536971C0.880788 0.193154 1.3471 0 1.83333 0V0ZM14.6667 14.6667H23.8333C24.3196 14.6667 24.7859 14.8598 25.1297 15.2036C25.4735 15.5475 25.6667 16.0138 25.6667 16.5C25.6667 16.9862 25.4735 17.4525 25.1297 17.7964C24.7859 18.1402 24.3196 18.3333 23.8333 18.3333H14.6667C14.1804 18.3333 13.7141 18.1402 13.3703 17.7964C13.0265 17.4525 12.8333 16.9862 12.8333 16.5C12.8333 16.0138 13.0265 15.5475 13.3703 15.2036C13.7141 14.8598 14.1804 14.6667 14.6667 14.6667ZM1.83333 7.33333H23.8333C24.3196 7.33333 24.7859 7.52649 25.1297 7.8703C25.4735 8.21412 25.6667 8.68044 25.6667 9.16667C25.6667 9.6529 25.4735 10.1192 25.1297 10.463C24.7859 10.8068 24.3196 11 23.8333 11H1.83333C1.3471 11 0.880788 10.8068 0.536971 10.463C0.193154 10.1192 0 9.6529 0 9.16667C0 8.68044 0.193154 8.21412 0.536971 7.8703C0.880788 7.52649 1.3471 7.33333 1.83333 7.33333Z" fill="black"/>
</svg>
