<svg width="34" height="32" viewBox="0 0 22 20" xmlns="http://www.w3.org/2000/svg" fill="#fff">
<path d="M11 12C13.7614 12 16 9.31371 16 6C16 2.68629 13.7614 0 11 0C8.23858 0 6 2.68629 6 6C6 9.31371 8.23858 12 11 12Z"/>
<path d="M20.8002 17.1C19.9002 15.3 18.2002 13.8 16.0002 12.9C15.4002 12.7 14.7002 12.7 14.2002 13C13.2002 13.6 12.2002 13.9 11.0002 13.9C9.80022 13.9 8.80022 13.6 7.80022 13C7.30022 12.8 6.60022 12.7 6.00022 13C3.80022 13.9 2.10022 15.4 1.20022 17.2C0.500217 18.5 1.60022 20 3.10022 20H18.9002C20.4002 20 21.5002 18.5 20.8002 17.1Z"/>
</svg>
